<svg xmlns="http://www.w3.org/2000/svg" viewBox="0 0 800 360" role="img" aria-label="Collecte et redistribution anti-gaspillage">
  <defs>
    <linearGradient id="ciel" x1="0" y1="0" x2="0" y2="1">
      <stop offset="0" stop-color="#e8f5ee"/>
      <stop offset="1" stop-color="#d1e7dd"/>
    </linearGradient>
  </defs>
  <rect width="800" height="360" rx="18" fill="url(#ciel)"/>
  <circle cx="672" cy="78" r="42" fill="#ffe08a"/>
  <rect x="0" y="286" width="800" height="74" rx="18" fill="#a3cfbb" opacity="0.55"/>

  <path d="M556 120 c-15 10 -15 33 0 45 c15 -12 15 -35 0 -45 Z" fill="#198754"/>
  <path d="M612 168 c-11 7 -11 25 0 34 c11 -9 11 -27 0 -34 Z" fill="#20c997"/>
  <path d="M120 96 c-11 7 -11 25 0 34 c11 -9 11 -27 0 -34 Z" fill="#20c997"/>

  <rect x="150" y="96" width="128" height="96" rx="10" fill="#f3c98b"/>
  <path d="M214 116 c-19 13 -19 42 0 58 c19 -16 19 -45 0 -58 Z" fill="#198754"/>

  <rect x="120" y="192" width="250" height="94" rx="12" fill="#198754"/>
  <path d="M370 214 h74 l52 48 v24 h-126 Z" fill="#146c43"/>
  <rect x="392" y="224" width="58" height="38" rx="6" fill="#cfe9dd"/>
  <circle cx="186" cy="292" r="28" fill="#212529"/><circle cx="186" cy="292" r="12" fill="#adb5bd"/>
  <circle cx="424" cy="292" r="28" fill="#212529"/><circle cx="424" cy="292" r="12" fill="#adb5bd"/>
</svg>
